<?xml version="1.0" encoding="utf-8"?>
<!-- Generator: Adobe Illustrator 21.1.0, SVG Export Plug-In . SVG Version: 6.00 Build 0)  -->
<svg version="1.1" id="Layer_1" xmlns="http://www.w3.org/2000/svg" xmlns:xlink="http://www.w3.org/1999/xlink" x="0px" y="0px"
	 viewBox="0 0 1740 441.8" style="enable-background:new 0 0 1740 441.8;" xml:space="preserve">
<style type="text/css">
	.st0{fill:#FFFFFF;}
	.st1{fill:url(#SVGID_1_);stroke:#FFFFFF;stroke-miterlimit:10;}
</style>
<g>
	<path class="st0" d="M24.6,153.7h138.8l5,31.4h-56.5v152.6H75.4V185.1H24.6V153.7z"/>
	<path class="st0" d="M258.8,201.6c16.5,0,28.3,5.2,35.3,15.7c7,10.5,10.5,23.4,10.5,38.7v81.7h-36.4v-80.4c0-7.2-1.7-12.8-5.1-16.6
		c-3.4-3.9-8.1-5.8-14.3-5.8c-4.1,0-8.5,1.2-13.3,3.5c-4.7,2.3-9,5-13,7.8v91.5h-36.2V149.7l36.2-3v67.1c5.1-3.8,11-6.8,17.7-8.9
		S253.1,201.6,258.8,201.6z"/>
	<path class="st0" d="M389.6,202.7c18.8,0,32.8,6.8,41.9,20.3c9.1,13.5,13.6,29.6,13.6,48.2v13h-78.3c1.6,7.4,5.1,13.2,10.3,17.3
		c5.2,4.2,11.9,6.2,20,6.2c5.5,0,10.5-0.7,15.2-2c4.7-1.4,9.8-3.5,15.2-6.4l10.7,28.1c-6.1,5.1-13.5,8.6-22.3,10.6
		c-8.8,2-15.7,3-20.8,3c-20.3,0-36.6-6-48.9-18c-12.3-12-18.5-28.9-18.5-50.7c0-21.3,5.7-38.2,17.1-50.7
		C356.2,209,371.1,202.7,389.6,202.7z M388.6,235.7c-5.6,0-10.4,2-14.4,6c-4,4-6.5,9.6-7.7,16.8h43.9c-1.2-6.9-3.6-12.4-7.2-16.5
		C399.6,237.8,394.7,235.7,388.6,235.7z"/>
</g>
<g>
	<path class="st0" d="M622.4,238.8l-77-101l0,200.5l-60.9,0L484.4,9.9l38.7,0l108.7,151.7L730.5,9.8l37.3,0l0.1,328.5l-61.9,0
		l0-189.4l-60,86.5L622.4,238.8z"/>
	<path class="st0" d="M945.5,344.1c-39.7,0-70.9-11.1-93.8-33.3c-22.8-22.2-34.3-52-34.3-89.4c0-37.4,10.3-67.3,30.9-89.9
		c20.6-22.5,48.7-33.8,84.3-33.8c35.9,0,62.3,12.1,79.1,36.5c16.8,24.3,25.3,53.1,25.3,86.2l0,19.3l-154.5,0
		c2.8,15.5,9.8,27.8,20.8,37c11,9.2,25.5,13.8,43.5,13.8c10.4,0,19.8-1.4,28.1-4.1c8.3-2.7,18-6.7,29-11.8l18,45.4
		c-10.7,8.4-23.7,14.5-39,18.4C967.8,342.1,955.3,344.1,945.5,344.1z M979,197.7c-3.2-15.8-8.8-27.5-17-35
		c-8.2-7.6-18.4-11.3-30.7-11.3c-12.6,0-23.1,4-31.6,11.8c-8.5,7.9-14,19.4-16.5,34.5L979,197.7z"/>
	<path class="st0" d="M1216.6,333.4c-5,4.2-12.2,7.6-21.5,10.4c-9.3,2.7-17.6,4.1-24.8,4.1c-28.3,0-50.6-7.3-66.8-22
		c-16.2-14.6-24.3-35.5-24.3-62.6l0-110.6l-30.7,0l0-48.3l30.7,0l0-55.6l60.9-11.1l0,66.7l41.6,0l18.9,48.3l-60.5,0l0,99.5
		c0,12.2,2.8,22.3,8.5,30.2c5.7,7.9,14,11.8,25,11.8c4.1,0,8.2-0.5,12.3-1.5c4.1-1,8.3-2.6,12.8-4.8L1216.6,333.4z"/>
	<path class="st0" d="M1366.8,103.9l12.3,50.2c-10.4,0-22.4,3.1-36.1,9.2c-13.7,6.1-27.2,15.1-40.4,27.1l0,147.8l-61.4,0l0-234.3
		l32.1,0l20.3,34.3c9.4-8.4,20.9-16.2,34.5-23.4C1341.6,107.5,1354.5,103.9,1366.8,103.9z"/>
	<path class="st0" d="M1431.4,0c9.8,0,18,3.4,24.8,10.1c6.8,6.8,10.2,15.1,10.2,25.1c0,10-3.4,18.4-10.1,25.1
		c-6.8,6.8-15,10.1-24.8,10.2c-9.4,0-17.5-3.4-24.1-10.1c-6.6-6.8-9.9-15.1-9.9-25.1c0-10,3.3-18.4,9.9-25.1
		C1414,3.4,1422,0,1431.4,0z M1462.2,103.9l0,234.3l-61.4,0l0-234.3L1462.2,103.9z"/>
	<path class="st0" d="M1621.3,151.2c-17.3,0-30.9,6.7-40.6,20.1c-9.8,13.4-14.6,30-14.6,50c0,20.3,4.9,36.9,14.7,49.8
		c9.8,12.9,23.3,19.3,40.6,19.3c10.7,0,20.4-1.4,29-4.1c8.7-2.7,18.5-6.7,29.5-11.8l17.5,45.4c-10.7,8.4-23.7,14.5-39,18.4
		c-15.3,3.9-27.8,5.8-37.5,5.8c-37.2,0-66.1-11.1-86.9-33.3s-31.2-52-31.2-89.4c0-37.4,10.4-67.3,31.2-89.9
		c20.8-22.5,49.7-33.8,86.9-33.8c9.8,0,22.1,2.1,37.1,6.3c15,4.2,28.1,10.3,39.4,18.3l-17.5,44.9c-11-5.1-20.9-9.1-29.5-11.8
		C1641.7,152.5,1632,151.2,1621.3,151.2z"/>
</g>
<linearGradient id="SVGID_1_" gradientUnits="userSpaceOnUse" x1="809.5526" y1="301.9022" x2="1104.3221" y2="852.993">
	<stop  offset="0" style="stop-color:#1FB2FF"/>
	<stop  offset="0.6449" style="stop-color:#2D6DFD"/>
	<stop  offset="0.9988" style="stop-color:#7131FC"/>
</linearGradient>
<rect x="0.5" y="388.5" class="st1" width="1739" height="52.8"/>
</svg>
