<?xml version="1.0" standalone="no"?>
<!DOCTYPE svg PUBLIC "-//W3C//DTD SVG 20010904//EN"
 "http://www.w3.org/TR/2001/REC-SVG-20010904/DTD/svg10.dtd">
<svg version="1.0" xmlns="http://www.w3.org/2000/svg"
 width="806.000000pt" height="806.000000pt" viewBox="0 0 806.000000 806.000000"
 preserveAspectRatio="xMidYMid meet">
<metadata>
Created by potrace 1.11, written by Peter Selinger 2001-2013
</metadata>
<g transform="translate(0.000000,806.000000) scale(0.100000,-0.100000)"
fill="#000000" stroke="none">
<path d="M1290 8042 c-1 -96 -1 -3025 -1 -4578 l1 -1982 608 0 607 0 5 2005 5
2004 45 -61 c25 -34 50 -67 55 -73 6 -7 33 -41 60 -77 55 -73 58 -75 85 -109
11 -13 20 -27 20 -30 0 -3 10 -17 23 -31 12 -14 56 -70 97 -125 83 -111 99
-131 118 -151 7 -8 11 -14 8 -14 -3 0 2 -8 12 -18 9 -10 26 -31 37 -46 11 -16
28 -37 38 -48 9 -10 17 -21 17 -24 0 -3 20 -31 45 -62 57 -72 49 -62 125 -162
35 -47 70 -91 76 -97 7 -7 22 -28 34 -48 12 -19 26 -35 31 -35 5 0 9 -5 9 -11
0 -6 20 -36 45 -67 58 -72 62 -78 194 -252 61 -80 114 -149 118 -155 5 -5 22
-28 38 -50 17 -22 35 -46 42 -55 7 -8 47 -60 89 -115 42 -55 79 -99 83 -98 3
0 29 4 56 7 28 4 66 9 85 12 19 2 49 7 65 9 17 2 50 7 75 11 46 7 50 7 135 19
28 4 50 8 51 9 0 0 35 51 77 111 43 61 82 117 87 125 6 8 71 103 146 210 74
107 177 255 227 328 51 73 128 184 172 247 131 187 206 296 259 375 15 24 37
53 47 64 11 11 19 25 19 32 0 7 4 14 8 16 4 2 41 51 82 111 40 59 74 107 75
107 1 0 1 -845 1 -1877 -1 -1033 0 -1885 2 -1894 3 -15 58 -16 620 -15 l617 1
0 3288 0 3287 -375 0 -375 0 -57 -90 c-32 -50 -57 -93 -57 -97 0 -3 -3 -9 -8
-12 -5 -3 -38 -51 -74 -106 -35 -55 -67 -101 -71 -103 -5 -2 -8 -8 -8 -13 0
-4 -13 -28 -29 -51 -28 -41 -127 -193 -259 -398 -34 -52 -66 -102 -72 -110
-19 -28 -255 -391 -265 -408 -5 -9 -55 -84 -109 -167 -54 -82 -107 -165 -118
-183 -10 -18 -23 -39 -29 -45 -6 -7 -35 -50 -64 -97 -30 -47 -58 -90 -63 -96
-5 -5 -15 -21 -22 -34 -7 -13 -17 -29 -21 -34 -5 -6 -39 -58 -76 -116 -37 -58
-72 -108 -78 -112 -5 -4 -6 -8 -2 -8 4 0 -1 -10 -13 -22 -11 -12 -20 -28 -20
-35 0 -7 -3 -13 -7 -13 -5 0 -24 -27 -43 -60 -19 -33 -38 -60 -42 -60 -5 0 -8
-4 -8 -9 0 -6 -52 -90 -116 -188 -64 -98 -133 -203 -153 -233 -19 -30 -38 -57
-41 -60 -3 -3 -12 -18 -20 -34 -8 -16 -20 -31 -26 -33 -7 -2 -35 29 -63 69
-27 40 -58 84 -68 97 -10 13 -62 85 -115 160 -53 75 -101 141 -106 147 -8 9
-49 66 -177 248 -16 24 -38 54 -48 67 -44 60 -179 248 -247 345 -41 58 -83
115 -92 125 -10 11 -18 22 -18 27 0 4 -11 20 -25 36 -14 16 -25 32 -25 36 0 4
-10 19 -22 33 -13 14 -43 54 -68 91 -25 36 -48 65 -52 66 -5 0 -8 6 -8 13 0 7
-8 22 -18 33 -9 10 -75 100 -145 199 -71 99 -136 190 -145 202 -9 12 -34 46
-55 75 -110 155 -189 265 -202 281 -8 9 -15 22 -15 27 0 6 -4 10 -10 10 -5 0
-10 7 -10 15 0 8 -4 15 -10 15 -5 0 -10 5 -10 10 0 6 -7 18 -16 28 -16 17
-162 219 -218 302 -17 25 -36 52 -43 60 -42 53 -83 112 -83 119 0 5 -3 11 -7
13 -5 2 -20 19 -35 39 l-27 36 -385 1 c-353 0 -386 -1 -386 -16z"/>
<path d="M420 544 l0 -544 3615 0 3615 0 0 544 0 543 -3615 0 -3615 0 0 -543z"/>
</g>
</svg>
